<?xml version="1.0" encoding="UTF-8" standalone="no"?>
<!-- Created with Inkscape (http://www.inkscape.org/) -->

<svg
   xmlns:dc="http://purl.org/dc/elements/1.1/"
   xmlns:cc="http://creativecommons.org/ns#"
   xmlns:rdf="http://www.w3.org/1999/02/22-rdf-syntax-ns#"
   xmlns:svg="http://www.w3.org/2000/svg"
   xmlns="http://www.w3.org/2000/svg"
   xmlns:sodipodi="http://sodipodi.sourceforge.net/DTD/sodipodi-0.dtd"
   xmlns:inkscape="http://www.inkscape.org/namespaces/inkscape"
   width="814.3703"
   height="226.24809"
   viewBox="0 0 814.3703 226.24809"
   id="svg2"
   version="1.1"
   inkscape:version="0.91 r13725"
   sodipodi:docname="rais-logo.svg"
   inkscape:export-filename="D:\SVG-icon\raislogo.png"
   inkscape:export-xdpi="90"
   inkscape:export-ydpi="90">
  <defs
     id="defs4" />
  <sodipodi:namedview
     id="base"
     pagecolor="#ffffff"
     bordercolor="#666666"
     borderopacity="1.0"
     inkscape:pageopacity="0.0"
     inkscape:pageshadow="2"
     inkscape:zoom="1.6986314"
     inkscape:cx="408.08605"
     inkscape:cy="112.77399"
     inkscape:document-units="px"
     inkscape:current-layer="layer1"
     showgrid="true"
     units="px"
     inkscape:window-width="1600"
     inkscape:window-height="837"
     inkscape:window-x="-4"
     inkscape:window-y="1076"
     inkscape:window-maximized="1"
     fit-margin-top="0.7"
     fit-margin-left="0"
     fit-margin-right="0"
     fit-margin-bottom="0"
     inkscape:snap-text-baseline="true">
    <inkscape:grid
       type="xygrid"
       id="grid4160" />
  </sodipodi:namedview>
  <metadata
     id="metadata7">
    <rdf:RDF>
      <cc:Work
         rdf:about="">
        <dc:format>image/svg+xml</dc:format>
        <dc:type
           rdf:resource="http://purl.org/dc/dcmitype/StillImage" />
        <dc:title></dc:title>
      </cc:Work>
    </rdf:RDF>
  </metadata>
  <g
     inkscape:label="Layer 1"
     inkscape:groupmode="layer"
     id="layer1"
     transform="translate(-40.130251,-842.94722)">
    <path
       style="fill:#0072bc;fill-opacity:1"
       d="m 162.70204,1008.5447 c -28.04134,-2.7994 -52.11976,-23.26339 -61.5877,-52.34264 -2.67635,-8.21996 -4.48118,-22.85241 -3.62762,-29.41039 0.63635,-4.88918 0.92895,-5.32954 3.54126,-5.32954 7.58158,0 12.84017,-3.38533 25.36516,-16.32937 12.659,-13.08251 15.93045,-18.43225 13.31108,-21.76734 -2.15154,-2.73941 -4.07517,-1.85454 -11.48256,5.282 -9.76228,9.40532 -17.94586,13.84055 -14.8896,8.06969 1.23062,-2.32366 16.60734,-15.78919 20.39149,-17.857 3.30499,-1.80598 6.20519,-1.24658 10.06933,1.94219 2.06025,1.70016 4.34076,2.05431 13.22877,2.05431 10.01078,0 10.95569,-0.19235 13.92793,-2.83512 l 3.18855,-2.83511 -2.26093,-3.23147 -2.26094,-3.23147 -19.43214,0 -19.43213,0 -4.64064,3.15363 c -2.55237,1.73449 -5.81497,4.51003 -7.25024,6.16787 -1.43526,1.65782 -3.54903,3.49212 -4.69723,4.07619 -1.14822,0.58408 1.7017,-2.82195 6.33315,-7.56893 28.43105,-29.14029 72.86121,-28.55748 101.27875,1.32846 13.98088,14.70334 21.24116,33.23876 21.28317,54.33586 l 0.0181,9.09986 -4.20886,0 c -7.16732,0 -11.32129,2.82529 -24.69396,16.79538 -11.2774,11.78121 -12.85045,13.87025 -12.85045,17.06582 0,3.33287 0.27278,3.64131 3.22033,3.64131 2.44351,0 4.89855,-1.56386 10.17737,-6.48299 3.82636,-3.56566 8.52037,-7.32114 10.43112,-8.34555 3.36732,-1.80531 3.46357,-1.79562 3.13151,0.31507 -0.43804,2.78416 -20.14473,20.02854 -22.88841,20.02854 -1.13708,0 -4.04502,-1.11678 -6.46212,-2.48178 -3.79938,-2.14559 -5.96374,-2.48178 -15.97737,-2.48178 -12.83102,0 -15.03504,0.89994 -15.03504,6.13912 0,5.75267 2.63693,6.54557 21.77067,6.54557 10.53675,0 18.78018,-0.52221 21.41578,-1.35662 2.8404,-0.89927 6.84006,-3.92129 11.86419,-8.96434 4.16859,-4.18426 7.57926,-7.10872 7.57926,-6.49879 0,0.60993 -3.03531,4.57327 -6.74516,8.80742 -16.03577,18.30214 -37.39875,26.86844 -61.10389,24.50194 z m 24.30945,-41.74221 c 3.32333,-1.22833 7.48656,-3.31995 9.25162,-4.64806 3.51924,-2.64799 6.43631,-8.71382 5.47008,-11.37455 -0.51651,-1.42233 -1.13477,-1.27234 -3.90399,0.94714 -12.18309,9.76461 -39.00146,10.81627 -54.74179,2.1467 -3.72785,-2.05327 -6.94602,-3.73321 -7.15145,-3.73321 -1.47875,0 0.13256,5.98139 2.36735,8.78786 8.04313,10.10066 32.14327,13.99667 48.70818,7.87412 z m -4.53468,-11.75969 c 9.01708,-2.16718 16.38191,-6.98741 18.37412,-12.02575 2.55746,-6.46794 1.07825,-7.49703 -4.78414,-3.32825 -12.83233,9.12512 -38.03593,9.59817 -52.97253,0.99424 -3.60792,-2.07829 -6.77856,-3.77872 -7.04586,-3.77872 -1.70656,0 0.0318,6.06151 2.63791,9.19796 7.52478,9.05616 26.87318,13.00645 43.7905,8.94052 z m -0.77623,-12.76059 c 6.33006,-1.41926 14.10948,-5.28748 16.68005,-8.29397 0.96472,-1.12834 2.27391,-3.49641 2.90932,-5.26239 1.62703,-4.52208 -0.10428,-5.97063 -3.63173,-3.03861 -11.85063,9.85022 -42.40121,10.52809 -56.24911,1.24807 -2.68145,-1.79693 -5.0939,-3.26715 -5.36103,-3.26715 -0.26711,0 -0.48566,1.25835 -0.48566,2.79635 0,6.24313 6.93991,12.21424 17.77044,15.28967 6.91691,1.96414 20.80921,2.22271 28.36772,0.52803 z m 3.90473,-14.09684 c 10.73659,-3.53107 17.18418,-10.51215 15.9598,-17.28031 -0.82392,-4.55433 -7.77995,-10.07296 -16.11417,-12.78428 -26.55702,-8.63963 -59.20161,6.12081 -47.70219,21.56883 2.52389,3.39053 8.80927,7.03368 15.55881,9.01825 7.55185,2.22046 24.80621,1.94132 32.29775,-0.52249 z"
       id="path3347"
       inkscape:connector-curvature="0" />
    <text
       xml:space="preserve"
       style="font-style:normal;font-weight:normal;font-size:55.35672379px;line-height:125%;font-family:sans-serif;letter-spacing:0px;word-spacing:0px;fill:#0072bc;fill-opacity:1;stroke:none;stroke-width:1px;stroke-linecap:butt;stroke-linejoin:miter;stroke-opacity:1"
       x="226.06319"
       y="1084.8385"
       id="text4142"
       sodipodi:linespacing="125%"
       transform="scale(1.0749542,0.93027223)"><tspan
         sodipodi:role="line"
         id="tspan4144"
         x="226.06319"
         y="1084.8385"
         style="font-style:normal;font-variant:normal;font-weight:normal;font-stretch:normal;font-size:249.1053009px;font-family:'Proxima Nova';-inkscape-font-specification:'Proxima Nova';fill:#0072bc;fill-opacity:1">RAIS</tspan></text>
    <text
       xml:space="preserve"
       style="font-style:normal;font-weight:normal;font-size:38.46002579px;line-height:332.99999237%;font-family:sans-serif;letter-spacing:0px;word-spacing:0px;fill:#0072bc;fill-opacity:1;stroke:none;stroke-width:1px;stroke-linecap:butt;stroke-linejoin:miter;stroke-opacity:1"
       x="105.1796"
       y="1008.8019"
       id="text4146"
       sodipodi:linespacing="332.99999%"
       transform="scale(0.96150065,1.0400409)"><tspan
         sodipodi:role="line"
         id="tspan4148"
         x="105.1796"
         y="1008.8019"
         style="font-style:normal;font-variant:normal;font-weight:bold;font-stretch:normal;line-height:332.99999237%;font-family:'Proxima Nova';-inkscape-font-specification:'Proxima Nova Bold';letter-spacing:0px;font-size:40px">Refugee Assistance Information System</tspan></text>
    <path
       style="opacity:0.63399999;fill:#0072bc;fill-opacity:1;stroke-width:0;stroke-miterlimit:4;stroke-dasharray:none"
       id="path4260"
       sodipodi:type="arc"
       sodipodi:cx="187.63025"
       sodipodi:cy="929.19531"
       sodipodi:rx="72.5"
       sodipodi:ry="75"
       sodipodi:start="0"
       sodipodi:end="0.15524931"
       sodipodi:open="true"
       d="m 260.13025,929.19531 a 72.5,75 0 0 1 -0.87196,11.59698" />
    <path
       style="opacity:0.63399999;fill:#5872bc;fill-opacity:1;stroke-width:0;stroke-miterlimit:4;stroke-dasharray:none"
       id="path4262"
       sodipodi:type="arc"
       sodipodi:cx="142.63025"
       sodipodi:cy="801.69531"
       sodipodi:rx="42.5"
       sodipodi:ry="17.5"
       sodipodi:start="0"
       sodipodi:end="0.15524931"
       sodipodi:open="true"
       d="m 185.13025,801.69531 a 42.5,17.5 0 0 1 -0.51115,2.70596" />
    <path
       style="opacity:0.63399999;fill:#5872bc;fill-opacity:1;stroke-width:0;stroke-miterlimit:4;stroke-dasharray:none"
       id="path4268"
       sodipodi:type="arc"
       sodipodi:cx="-257.36975"
       sodipodi:cy="949.19531"
       sodipodi:rx="42.5"
       sodipodi:ry="40"
       sodipodi:start="0"
       sodipodi:end="0.15524931"
       sodipodi:open="true"
       d="m -214.86975,949.19531 a 42.5,40 0 0 1 -0.51115,6.18506" />
    <path
       style="opacity:0.63399999;fill:#5872bc;fill-opacity:1;stroke-width:0;stroke-miterlimit:4;stroke-dasharray:none"
       id="path4270"
       sodipodi:type="arc"
       sodipodi:cx="-249.86975"
       sodipodi:cy="964.19531"
       sodipodi:rx="50"
       sodipodi:ry="40"
       sodipodi:start="0"
       sodipodi:end="0.15524931"
       sodipodi:open="true"
       d="m -199.86975,964.19531 a 50,40 0 0 1 -0.60135,6.18506" />
    <path
       style="opacity:0.63399999;fill:#5872bc;fill-opacity:1;stroke-width:0;stroke-miterlimit:4;stroke-dasharray:none"
       id="path4272"
       sodipodi:type="arc"
       sodipodi:cx="-242.36975"
       sodipodi:cy="964.19531"
       sodipodi:rx="42.5"
       sodipodi:ry="45"
       sodipodi:start="0"
       sodipodi:end="0.15524931"
       sodipodi:open="true"
       d="m -199.86975,964.19531 a 42.5,45 0 0 1 -0.51115,6.95819" />
  </g>
</svg>
